<?xml version="1.0" standalone="no"?>
<svg xmlns="http://www.w3.org/2000/svg" viewBox="0 0 91.44 28.396" width="91.44" height="28.396"><g fill="#ff6506" color="#ff6506" transform="translate(0, 0) scale(0.6041667)"><svg width="48.0" height="47.0" x="0.0" y="0.0" viewBox="0 0 48 47"><path fill="currentColor" fill-rule="evenodd" d="M32.083 0l-.46.265-2.644 1.527-13.062 7.542L3.854 30.228.267 36.442l-.267.46 2.117 1.222 13.925 8.042.123.07H48V27.57l-.071-.124L34.953 4.97 32.083 0zM25.04 5.292l6.654-3.841 6.547 11.34-13.2-7.5zm-7.67 4.43l6.604-3.814 15.317 8.703 6.725 11.65-28.647-16.54zm-.531.92l29.566 17.07-29.566 17.07v-34.14zM9.171 40.97l-.123-17.615 6.728-11.65v33.078L9.17 40.97zm-7.72-4.457l6.547-11.338.107 15.18-6.654-3.842zm45.487-7.88v7.627l-15.194 8.912H18.29l28.648-16.54zm0 8.858v7.681H33.842l13.096-7.681zM23.567 22.294l9.384 5.42-9.384 5.417V22.294zm1.06 1.84v7.156l6.198-3.577-6.198-3.578z"></path></svg></g><line x1="41" y1="1" x2="41" y2="27.396" stroke="#00005f" stroke-linecap="round"></line><path fill="#00005f" fill-rule="nonzero" d="M2.16 15.84L2.16 2.88Q2.16 1.66 1.82 1.07Q1.49 0.48 0.48 0.48L0.48 0.48L0 0.48L0 0L2.16 0Q3.05 0 3.49 0.23Q3.94 0.46 4.13 1.06Q4.32 1.66 4.32 2.88L4.32 2.88L4.32 14.88L12.84 14.88L12.84 15.84L2.16 15.84ZM18.79 16.08Q17.16 16.08 16.03 15.30Q14.90 14.52 14.33 13.19Q13.75 11.86 13.75 10.20L13.75 10.20Q13.75 8.57 14.33 7.22Q14.90 5.88 16.00 5.10Q17.09 4.32 18.55 4.32L18.55 4.32Q20.98 4.32 22.16 5.68Q23.35 7.03 23.35 9.60L23.35 9.60L23.30 10.56L16.03 10.56Q16.03 12.58 16.90 13.85Q17.76 15.12 19.27 15.12L19.27 15.12Q20.40 15.12 21.18 14.64Q21.96 14.16 22.63 13.20L22.63 13.20L23.11 13.56Q22.32 14.88 21.26 15.48Q20.21 16.08 18.79 16.08L18.79 16.08ZM16.03 9.60L21.07 9.60Q21.07 7.49 20.45 6.38Q19.82 5.28 18.55 5.28L18.55 5.28Q17.83 5.28 17.26 5.84Q16.68 6.41 16.36 7.39Q16.03 8.38 16.03 9.60L16.03 9.60ZM30.36 16.08L26.64 7.32Q26.06 5.98 25.54 5.44Q25.01 4.90 24.14 4.85L24.14 4.85L24.14 4.37Q24.26 4.37 24.49 4.34Q24.72 4.32 24.96 4.32L24.96 4.32Q26.23 4.32 27.26 4.96Q28.30 5.59 29.04 7.32L29.04 7.32L31.20 12.48L34.56 4.56L35.76 4.56L30.84 16.08L30.36 16.08ZM39.19 3.12Q38.64 3.12 38.24 2.66Q37.85 2.21 37.85 1.58L37.85 1.58Q37.85 1.08 38.15 0.79Q38.45 0.50 38.95 0.50L38.95 0.50Q39.50 0.50 39.90 0.96Q40.30 1.42 40.30 2.04L40.30 2.04Q40.30 2.54 40.00 2.83Q39.70 3.12 39.19 3.12L39.19 3.12ZM38.28 15.84L38.28 7.44Q38.28 6.22 37.94 5.63Q37.61 5.04 36.60 5.04L36.60 5.04L36.12 5.04L36.12 4.56L38.28 4.56Q39.17 4.56 39.61 4.79Q40.06 5.02 40.25 5.62Q40.44 6.22 40.44 7.44L40.44 7.44L40.44 15.84L38.28 15.84Z" transform="translate(51, 6.278)"></path></svg>